<svg xmlns="http://www.w3.org/2000/svg" viewBox="0 0 255.75 57" version="1.0">
  <path transform="matrix(.75158 0 0 .75 13.817 42.3)" fill="none" d="M0 6.002h148.692" stroke="#ffffff" stroke-width="12"/>
  <path d="M135.313 42.658c1 0 1.789.246 2.375.735.582.48.875 1.14.875 1.984 0 .844-.293 1.512-.875 2-.586.48-1.375.719-2.375.719h-1.938v2.36h-1.11v-7.798Zm-.047 4.47c.707 0 1.242-.15 1.609-.454.375-.3.563-.734.563-1.297 0-.562-.188-.992-.563-1.297-.367-.3-.902-.453-1.61-.453h-1.89v3.5ZM146.56 50.549c-.78 0-1.484-.172-2.109-.516a3.973 3.973 0 0 1-1.484-1.437c-.356-.602-.531-1.285-.531-2.047 0-.75.175-1.426.53-2.031a3.904 3.904 0 0 1 1.485-1.422 4.31 4.31 0 0 1 2.125-.531c.602 0 1.156.105 1.656.312.508.2.942.5 1.297.906l-.718.703c-.586-.613-1.313-.921-2.188-.921-.586 0-1.11.132-1.578.39a2.791 2.791 0 0 0-1.094 1.078 2.95 2.95 0 0 0-.39 1.516c0 .574.128 1.09.39 1.547.258.449.625.804 1.094 1.062.469.262.992.39 1.578.39.863 0 1.594-.312 2.188-.937l.718.704c-.355.406-.789.714-1.297.921-.511.211-1.07.313-1.671.313ZM164.91 46.408c.445.125.8.356 1.062.688.258.336.39.75.39 1.25 0 .68-.257 1.199-.765 1.562-.511.367-1.25.547-2.219.547h-3.718v-7.797h3.5c.883 0 1.57.18 2.062.532.489.355.735.851.735 1.484 0 .406-.102.762-.297 1.062a1.86 1.86 0 0 1-.75.672Zm-4.14-2.843v2.484h2.28c.57 0 1.008-.102 1.313-.313.312-.207.469-.515.469-.921 0-.415-.157-.727-.47-.938-.304-.207-.741-.312-1.312-.312Zm2.562 5.984c.632 0 1.109-.102 1.421-.313.32-.207.485-.53.485-.968 0-.875-.637-1.313-1.906-1.313h-2.563v2.594ZM174.095 50.549c-1.043 0-1.856-.297-2.438-.89-.574-.594-.86-1.446-.86-2.563v-4.438h1.11v4.39c0 1.669.727 2.5 2.188 2.5.718 0 1.265-.202 1.64-.608.383-.415.578-1.047.578-1.891v-4.39h1.079v4.437c0 1.117-.293 1.969-.875 2.562-.586.594-1.391.89-2.422.89ZM182.44 42.658h1.11v7.797h-1.11ZM188.659 42.658h1.109v6.828h4.219v.97h-5.328ZM198.043 42.658h3.28c.821 0 1.552.168 2.188.5a3.576 3.576 0 0 1 1.5 1.375c.352.586.532 1.258.532 2.016 0 .773-.18 1.453-.532 2.047a3.68 3.68 0 0 1-1.5 1.375c-.636.324-1.367.484-2.187.484h-3.281Zm3.218 6.828c.633 0 1.192-.117 1.672-.359.477-.25.844-.594 1.094-1.031.258-.446.39-.961.39-1.547 0-.57-.132-1.078-.39-1.516a2.54 2.54 0 0 0-1.094-1.03c-.48-.25-1.039-.376-1.672-.376h-2.109v5.86ZM215.668 49.486v.97h-5.656v-7.798h5.5v.97h-4.39v2.39h3.906v.953h-3.907v2.515ZM225.462 50.455l-1.688-2.39c-.21.011-.37.015-.484.015h-1.938v2.375h-1.109v-7.797h3.047c1 0 1.789.246 2.375.735.582.48.875 1.14.875 1.984 0 .606-.152 1.121-.453 1.547-.293.418-.715.719-1.266.906l1.844 2.625Zm-2.219-3.312c.707 0 1.242-.149 1.61-.453.374-.313.562-.75.562-1.313 0-.562-.188-.992-.563-1.297-.367-.3-.902-.453-1.609-.453h-1.89v3.516ZM36.147 36.984l-.046-11.235-5.454 9.14h-2.671l-5.422-8.843v10.938h-5.532V15.78h4.938l7.437 12.235 7.266-12.235h4.938l.062 21.204ZM65.55 32.343v4.64H48.534V15.78H65.16v4.641H54.472V24h9.406v4.469h-9.406v3.875ZM76.01 20.546h-6.5V15.78h18.984v4.766H82.01v16.438h-6ZM107.569 32.859H98.6l-1.672 4.125h-6.11l9.36-21.204h5.906l9.375 21.204h-6.234Zm-1.766-4.422-2.719-6.782-2.734 6.782ZM119.12 26.14h8.844v4.422h-8.844ZM138.671 20.546h-6.5V15.78h18.985v4.766h-6.485v16.438h-6ZM173.043 32.343v4.64h-17.016V15.78h16.625v4.641h-10.687V24h9.406v4.469h-9.406v3.875ZM189.565 37.405c-2.218 0-4.214-.468-5.984-1.406-1.762-.937-3.148-2.242-4.156-3.922-1.012-1.675-1.516-3.57-1.516-5.687 0-2.125.504-4.024 1.516-5.703 1.008-1.676 2.394-2.985 4.156-3.922 1.77-.938 3.766-1.406 5.984-1.406 1.938 0 3.68.343 5.235 1.03a10.013 10.013 0 0 1 3.875 2.97l-3.813 3.453c-1.375-1.657-3.043-2.485-5-2.485-1.148 0-2.172.258-3.078.766a5.272 5.272 0 0 0-2.094 2.125c-.492.918-.734 1.976-.734 3.172 0 1.187.242 2.242.734 3.156a5.335 5.335 0 0 0 2.094 2.14c.906.5 1.93.75 3.078.75 1.957 0 3.625-.827 5-2.484l3.813 3.453c-1.024 1.293-2.313 2.282-3.875 2.97-1.555.687-3.297 1.03-5.235 1.03ZM224.133 15.78v21.204h-5.985v-8.266h-8.187v8.266h-5.985V15.78h5.985v7.97h8.187v-7.97Zm0 0" fill="#ffffff"/>
</svg>